<?xml version="1.0" encoding="UTF-8" standalone="no"?>
<!DOCTYPE svg PUBLIC "-//W3C//DTD SVG 1.1//EN"
 "http://www.w3.org/Graphics/SVG/1.1/DTD/svg11.dtd">
<!-- Generated by graphviz version 12.0.0 (0)
 -->
<!-- Title: ER_3__Exercise___Contest__Chen_ Pages: 1 -->
<svg width="1437pt" height="551pt"
 viewBox="0.00 0.00 1437.28 551.20" xmlns="http://www.w3.org/2000/svg" xmlns:xlink="http://www.w3.org/1999/xlink">
<g id="graph0" class="graph" transform="scale(1 1) rotate(0) translate(4 547.2)">
<title>ER_3__Exercise___Contest__Chen_</title>
<polygon fill="white" stroke="none" points="-4,4 -4,-547.2 1433.28,-547.2 1433.28,4 -4,4"/>
<text text-anchor="middle" x="714.64" y="-524.8" font-family="Arial" font-size="16.00">3. Exercise &amp; Contest (Chen)</text>
<!-- ent_EXERCISE -->
<g id="node1" class="node">
<title>ent_EXERCISE</title>
<path fill="#e8f0fe" stroke="#1f3a68" stroke-width="1.5" d="M548.98,-210C548.98,-210 499.64,-210 499.64,-210 493.64,-210 487.64,-204 487.64,-198 487.64,-198 487.64,-186 487.64,-186 487.64,-180 493.64,-174 499.64,-174 499.64,-174 548.98,-174 548.98,-174 554.98,-174 560.98,-180 560.98,-186 560.98,-186 560.98,-198 560.98,-198 560.98,-204 554.98,-210 548.98,-210"/>
<text text-anchor="middle" x="524.31" y="-188.4" font-family="Arial Bold" font-size="12.00">EXERCISE</text>
</g>
<!-- rel_has_test_cases -->
<g id="node13" class="node">
<title>rel_has_test_cases</title>
<polygon fill="#fff4d6" stroke="#b07d00" stroke-width="1.5" points="775.12,-152 705,-134 775.12,-116 845.24,-134 775.12,-152"/>
<text text-anchor="middle" x="775.12" y="-130.7" font-family="Arial Bold" font-size="11.00">has_test_cases</text>
</g>
<!-- ent_EXERCISE&#45;&gt;rel_has_test_cases -->
<g id="edge1" class="edge">
<title>ent_EXERCISE&#45;&gt;rel_has_test_cases</title>
<path fill="none" stroke="black" d="M561.22,-183.63C604.58,-173.52 677.67,-156.48 725.91,-145.24"/>
<polygon fill="black" stroke="black" points="726.58,-148.68 735.53,-143 724.99,-141.86 726.58,-148.68"/>
</g>
<!-- rel_has_examples -->
<g id="node14" class="node">
<title>rel_has_examples</title>
<polygon fill="#fff4d6" stroke="#b07d00" stroke-width="1.5" points="775.12,-94 707.14,-76 775.12,-58 843.11,-76 775.12,-94"/>
<text text-anchor="middle" x="775.12" y="-72.7" font-family="Arial Bold" font-size="11.00">has_examples</text>
</g>
<!-- ent_EXERCISE&#45;&gt;rel_has_examples -->
<g id="edge3" class="edge">
<title>ent_EXERCISE&#45;&gt;rel_has_examples</title>
<path fill="none" stroke="black" d="M554.04,-173.63C584.7,-154.6 635.14,-124.91 681.47,-105 696.55,-98.52 713.56,-92.78 728.86,-88.14"/>
<polygon fill="black" stroke="black" points="729.58,-91.58 738.18,-85.4 727.6,-84.86 729.58,-91.58"/>
</g>
<!-- rel_has_defaults -->
<g id="node15" class="node">
<title>rel_has_defaults</title>
<polygon fill="#fff4d6" stroke="#b07d00" stroke-width="1.5" points="775.12,-36 713.02,-18 775.12,0 837.23,-18 775.12,-36"/>
<text text-anchor="middle" x="775.12" y="-14.7" font-family="Arial Bold" font-size="11.00">has_defaults</text>
</g>
<!-- ent_EXERCISE&#45;&gt;rel_has_defaults -->
<g id="edge5" class="edge">
<title>ent_EXERCISE&#45;&gt;rel_has_defaults</title>
<path fill="none" stroke="black" d="M540.19,-173.65C565.89,-143.09 621.64,-81.73 681.47,-47 695.32,-38.97 711.64,-32.9 726.69,-28.45"/>
<polygon fill="black" stroke="black" points="727.22,-31.94 735.92,-25.9 725.35,-25.19 727.22,-31.94"/>
</g>
<!-- rel_receives_submission -->
<g id="node16" class="node">
<title>rel_receives_submission</title>
<polygon fill="#fff4d6" stroke="#b07d00" stroke-width="1.5" points="775.12,-210 681.47,-192 775.12,-174 868.77,-192 775.12,-210"/>
<text text-anchor="middle" x="775.12" y="-188.7" font-family="Arial Bold" font-size="11.00">receives_submission</text>
</g>
<!-- ent_EXERCISE&#45;&gt;rel_receives_submission -->
<g id="edge7" class="edge">
<title>ent_EXERCISE&#45;&gt;rel_receives_submission</title>
<path fill="none" stroke="black" d="M561.22,-192C589.21,-192 629.59,-192 667.67,-192"/>
<polygon fill="black" stroke="black" points="667.36,-195.5 677.36,-192 667.36,-188.5 667.36,-195.5"/>
</g>
<!-- rel_belongs_to_contest -->
<g id="node17" class="node">
<title>rel_belongs_to_contest</title>
<polygon fill="#fff4d6" stroke="#b07d00" stroke-width="1.5" points="775.12,-268 686.82,-250 775.12,-232 863.43,-250 775.12,-268"/>
<text text-anchor="middle" x="775.12" y="-246.7" font-family="Arial Bold" font-size="11.00">belongs_to_contest</text>
</g>
<!-- ent_EXERCISE&#45;&gt;rel_belongs_to_contest -->
<g id="edge13" class="edge">
<title>ent_EXERCISE&#45;&gt;rel_belongs_to_contest</title>
<path fill="none" stroke="black" d="M561.22,-200.37C603.21,-210.16 673.08,-226.45 721.26,-237.68"/>
<polygon fill="black" stroke="black" points="720.4,-241.07 730.93,-239.93 721.99,-234.25 720.4,-241.07"/>
</g>
<!-- ent_EXERCISE_TEST_CASE -->
<g id="node2" class="node">
<title>ent_EXERCISE_TEST_CASE</title>
<path fill="#e8f0fe" stroke="#1f3a68" stroke-width="1.5" d="M1090.94,-152C1090.94,-152 970.27,-152 970.27,-152 964.27,-152 958.27,-146 958.27,-140 958.27,-140 958.27,-128 958.27,-128 958.27,-122 964.27,-116 970.27,-116 970.27,-116 1090.94,-116 1090.94,-116 1096.94,-116 1102.94,-122 1102.94,-128 1102.94,-128 1102.94,-140 1102.94,-140 1102.94,-146 1096.94,-152 1090.94,-152"/>
<text text-anchor="middle" x="1030.6" y="-130.4" font-family="Arial Bold" font-size="12.00">EXERCISE_TEST_CASE</text>
</g>
<!-- ent_EXERCISE_EXAMPLE -->
<g id="node3" class="node">
<title>ent_EXERCISE_EXAMPLE</title>
<path fill="#e8f0fe" stroke="#1f3a68" stroke-width="1.5" d="M1086.6,-94C1086.6,-94 974.6,-94 974.6,-94 968.6,-94 962.6,-88 962.6,-82 962.6,-82 962.6,-70 962.6,-70 962.6,-64 968.6,-58 974.6,-58 974.6,-58 1086.6,-58 1086.6,-58 1092.6,-58 1098.6,-64 1098.6,-70 1098.6,-70 1098.6,-82 1098.6,-82 1098.6,-88 1092.6,-94 1086.6,-94"/>
<text text-anchor="middle" x="1030.6" y="-72.4" font-family="Arial Bold" font-size="12.00">EXERCISE_EXAMPLE</text>
</g>
<!-- ent_EXERCISE_DEFAULT_CODE -->
<g id="node4" class="node">
<title>ent_EXERCISE_DEFAULT_CODE</title>
<path fill="#e8f0fe" stroke="#1f3a68" stroke-width="1.5" d="M1104.93,-36C1104.93,-36 956.27,-36 956.27,-36 950.27,-36 944.27,-30 944.27,-24 944.27,-24 944.27,-12 944.27,-12 944.27,-6 950.27,0 956.27,0 956.27,0 1104.93,0 1104.93,0 1110.93,0 1116.93,-6 1116.93,-12 1116.93,-12 1116.93,-24 1116.93,-24 1116.93,-30 1110.93,-36 1104.93,-36"/>
<text text-anchor="middle" x="1030.6" y="-14.4" font-family="Arial Bold" font-size="12.00">EXERCISE_DEFAULT_CODE</text>
</g>
<!-- ent_EXERCISE_SUBMISSION -->
<g id="node5" class="node">
<title>ent_EXERCISE_SUBMISSION</title>
<path fill="#e8f0fe" stroke="#1f3a68" stroke-width="1.5" d="M1094.61,-210C1094.61,-210 966.59,-210 966.59,-210 960.59,-210 954.59,-204 954.59,-198 954.59,-198 954.59,-186 954.59,-186 954.59,-180 960.59,-174 966.59,-174 966.59,-174 1094.61,-174 1094.61,-174 1100.61,-174 1106.61,-180 1106.61,-186 1106.61,-186 1106.61,-198 1106.61,-198 1106.61,-204 1100.61,-210 1094.61,-210"/>
<text text-anchor="middle" x="1030.6" y="-188.4" font-family="Arial Bold" font-size="12.00">EXERCISE_SUBMISSION</text>
</g>
<!-- ent_CONTEST -->
<g id="node6" class="node">
<title>ent_CONTEST</title>
<path fill="#e8f0fe" stroke="#1f3a68" stroke-width="1.5" d="M1053.6,-374C1053.6,-374 1007.6,-374 1007.6,-374 1001.6,-374 995.6,-368 995.6,-362 995.6,-362 995.6,-350 995.6,-350 995.6,-344 1001.6,-338 1007.6,-338 1007.6,-338 1053.6,-338 1053.6,-338 1059.6,-338 1065.6,-344 1065.6,-350 1065.6,-350 1065.6,-362 1065.6,-362 1065.6,-368 1059.6,-374 1053.6,-374"/>
<text text-anchor="middle" x="1030.6" y="-352.4" font-family="Arial Bold" font-size="12.00">CONTEST</text>
</g>
<!-- rel_awards -->
<g id="node20" class="node">
<title>rel_awards</title>
<polygon fill="#fff4d6" stroke="#b07d00" stroke-width="1.5" points="1203.19,-374 1161.93,-356 1203.19,-338 1244.44,-356 1203.19,-374"/>
<text text-anchor="middle" x="1203.19" y="-352.7" font-family="Arial Bold" font-size="11.00">awards</text>
</g>
<!-- ent_CONTEST&#45;&gt;rel_awards -->
<g id="edge23" class="edge">
<title>ent_CONTEST&#45;&gt;rel_awards</title>
<path fill="none" stroke="black" d="M1065.71,-356C1089.71,-356 1122.27,-356 1149.57,-356"/>
<polygon fill="black" stroke="black" points="1149.4,-359.5 1159.4,-356 1149.4,-352.5 1149.4,-359.5"/>
</g>
<!-- ent_CONTEST_EXERCISE -->
<g id="node7" class="node">
<title>ent_CONTEST_EXERCISE</title>
<path fill="#e8f0fe" stroke="#1f3a68" stroke-width="1.5" d="M1085.27,-268C1085.27,-268 975.94,-268 975.94,-268 969.94,-268 963.94,-262 963.94,-256 963.94,-256 963.94,-244 963.94,-244 963.94,-238 969.94,-232 975.94,-232 975.94,-232 1085.27,-232 1085.27,-232 1091.27,-232 1097.27,-238 1097.27,-244 1097.27,-244 1097.27,-256 1097.27,-256 1097.27,-262 1091.27,-268 1085.27,-268"/>
<text text-anchor="middle" x="1030.6" y="-246.4" font-family="Arial Bold" font-size="12.00">CONTEST_EXERCISE</text>
</g>
<!-- ent_CONTEST_REGISTRATION -->
<g id="node8" class="node">
<title>ent_CONTEST_REGISTRATION</title>
<path fill="#e8f0fe" stroke="#1f3a68" stroke-width="1.5" d="M593.97,-473C593.97,-473 454.65,-473 454.65,-473 448.65,-473 442.65,-467 442.65,-461 442.65,-461 442.65,-449 442.65,-449 442.65,-443 448.65,-437 454.65,-437 454.65,-437 593.97,-437 593.97,-437 599.97,-437 605.97,-443 605.97,-449 605.97,-449 605.97,-461 605.97,-461 605.97,-467 599.97,-473 593.97,-473"/>
<text text-anchor="middle" x="524.31" y="-451.4" font-family="Arial Bold" font-size="12.00">CONTEST_REGISTRATION</text>
</g>
<!-- ent_CONTEST_SUBMISSION -->
<g id="node9" class="node">
<title>ent_CONTEST_SUBMISSION</title>
<path fill="#e8f0fe" stroke="#1f3a68" stroke-width="1.5" d="M586.65,-369C586.65,-369 461.97,-369 461.97,-369 455.97,-369 449.97,-363 449.97,-357 449.97,-357 449.97,-345 449.97,-345 449.97,-339 455.97,-333 461.97,-333 461.97,-333 586.65,-333 586.65,-333 592.65,-333 598.65,-339 598.65,-345 598.65,-345 598.65,-357 598.65,-357 598.65,-363 592.65,-369 586.65,-369"/>
<text text-anchor="middle" x="524.31" y="-347.4" font-family="Arial Bold" font-size="12.00">CONTEST_SUBMISSION</text>
</g>
<!-- ent_CONTEST_PRIZE -->
<g id="node10" class="node">
<title>ent_CONTEST_PRIZE</title>
<path fill="#e8f0fe" stroke="#1f3a68" stroke-width="1.5" d="M1417.28,-403C1417.28,-403 1331.94,-403 1331.94,-403 1325.94,-403 1319.94,-397 1319.94,-391 1319.94,-391 1319.94,-379 1319.94,-379 1319.94,-373 1325.94,-367 1331.94,-367 1331.94,-367 1417.28,-367 1417.28,-367 1423.28,-367 1429.28,-373 1429.28,-379 1429.28,-379 1429.28,-391 1429.28,-391 1429.28,-397 1423.28,-403 1417.28,-403"/>
<text text-anchor="middle" x="1374.61" y="-381.4" font-family="Arial Bold" font-size="12.00">CONTEST_PRIZE</text>
</g>
<!-- ent_USER -->
<g id="node11" class="node">
<title>ent_USER</title>
<path fill="#e8f0fe" stroke="#1f3a68" stroke-width="1.5" d="M42,-394C42,-394 12,-394 12,-394 6,-394 0,-388 0,-382 0,-382 0,-370 0,-370 0,-364 6,-358 12,-358 12,-358 42,-358 42,-358 48,-358 54,-364 54,-370 54,-370 54,-382 54,-382 54,-388 48,-394 42,-394"/>
<text text-anchor="middle" x="27" y="-372.4" font-family="Arial Bold" font-size="12.00">USER</text>
</g>
<!-- rel_registers_for -->
<g id="node18" class="node">
<title>rel_registers_for</title>
<polygon fill="#fff4d6" stroke="#b07d00" stroke-width="1.5" points="176.04,-421 113.41,-403 176.04,-385 238.68,-403 176.04,-421"/>
<text text-anchor="middle" x="176.04" y="-399.7" font-family="Arial Bold" font-size="11.00">registers_for</text>
</g>
<!-- ent_USER&#45;&gt;rel_registers_for -->
<g id="edge16" class="edge">
<title>ent_USER&#45;&gt;rel_registers_for</title>
<path fill="none" stroke="black" d="M54.29,-380.83C74.04,-384.45 101.68,-389.53 125.54,-393.91"/>
<polygon fill="black" stroke="black" points="124.58,-397.29 135.05,-395.66 125.85,-390.41 124.58,-397.29"/>
</g>
<!-- rel_submits_to -->
<g id="node19" class="node">
<title>rel_submits_to</title>
<polygon fill="#fff4d6" stroke="#b07d00" stroke-width="1.5" points="176.04,-352 119.8,-334 176.04,-316 232.29,-334 176.04,-352"/>
<text text-anchor="middle" x="176.04" y="-330.7" font-family="Arial Bold" font-size="11.00">submits_to</text>
</g>
<!-- ent_USER&#45;&gt;rel_submits_to -->
<g id="edge19" class="edge">
<title>ent_USER&#45;&gt;rel_submits_to</title>
<path fill="none" stroke="black" d="M54.29,-368.49C76.52,-362.14 108.75,-352.93 134.32,-345.63"/>
<polygon fill="black" stroke="black" points="135.08,-349.06 143.73,-342.94 133.15,-342.33 135.08,-349.06"/>
</g>
<!-- rel_creates_exercise -->
<g id="node21" class="node">
<title>rel_creates_exercise</title>
<polygon fill="#fff4d6" stroke="#b07d00" stroke-width="1.5" points="176.04,-261 99,-243 176.04,-225 253.09,-243 176.04,-261"/>
<text text-anchor="middle" x="176.04" y="-239.7" font-family="Arial Bold" font-size="11.00">creates_exercise</text>
</g>
<!-- ent_USER&#45;&gt;rel_creates_exercise -->
<g id="edge9" class="edge">
<title>ent_USER&#45;&gt;rel_creates_exercise</title>
<path fill="none" stroke="black" d="M45.31,-357.69C59.4,-343.04 79.99,-322.18 99,-305 114.91,-290.63 133.56,-275.4 148.41,-263.63"/>
<polygon fill="black" stroke="black" points="150.22,-266.66 155.91,-257.73 145.89,-261.16 150.22,-266.66"/>
</g>
<!-- rel_creates_contest -->
<g id="node22" class="node">
<title>rel_creates_contest</title>
<polygon fill="#fff4d6" stroke="#b07d00" stroke-width="1.5" points="347.87,-516 275.09,-498 347.87,-480 420.65,-498 347.87,-516"/>
<text text-anchor="middle" x="347.87" y="-494.7" font-family="Arial Bold" font-size="11.00">creates_contest</text>
</g>
<!-- ent_USER&#45;&gt;rel_creates_contest -->
<g id="edge11" class="edge">
<title>ent_USER&#45;&gt;rel_creates_contest</title>
<path fill="none" stroke="black" d="M46.71,-394.28C60.23,-406.56 79.49,-422.23 99,-432 160.09,-462.57 236.96,-480.2 288.77,-489.43"/>
<polygon fill="black" stroke="black" points="288.14,-492.87 298.59,-491.12 289.33,-485.97 288.14,-492.87"/>
</g>
<!-- ent_COURSE -->
<g id="node12" class="node">
<title>ent_COURSE</title>
<path fill="#e8f0fe" stroke="#1f3a68" stroke-width="1.5" d="M1394.28,-345C1394.28,-345 1354.94,-345 1354.94,-345 1348.94,-345 1342.94,-339 1342.94,-333 1342.94,-333 1342.94,-321 1342.94,-321 1342.94,-315 1348.94,-309 1354.94,-309 1354.94,-309 1394.28,-309 1394.28,-309 1400.28,-309 1406.28,-315 1406.28,-321 1406.28,-321 1406.28,-333 1406.28,-333 1406.28,-339 1400.28,-345 1394.28,-345"/>
<text text-anchor="middle" x="1374.61" y="-323.4" font-family="Arial Bold" font-size="12.00">COURSE</text>
</g>
<!-- rel_has_test_cases&#45;&gt;ent_EXERCISE_TEST_CASE -->
<g id="edge2" class="edge">
<title>rel_has_test_cases&#45;&gt;ent_EXERCISE_TEST_CASE</title>
<path fill="none" stroke="black" d="M847.07,-134C877.99,-134 914.44,-134 946.61,-134"/>
<polygon fill="black" stroke="black" points="946.28,-137.5 956.28,-134 946.28,-130.5 946.28,-137.5"/>
<text text-anchor="middle" x="906.52" y="-136.7" font-family="Arial Italic" font-size="9.00" fill="#444444">1 â€” n</text>
</g>
<!-- rel_has_examples&#45;&gt;ent_EXERCISE_EXAMPLE -->
<g id="edge4" class="edge">
<title>rel_has_examples&#45;&gt;ent_EXERCISE_EXAMPLE</title>
<path fill="none" stroke="black" d="M845.05,-76C877.85,-76 917.22,-76 951.16,-76"/>
<polygon fill="black" stroke="black" points="950.93,-79.5 960.93,-76 950.93,-72.5 950.93,-79.5"/>
<text text-anchor="middle" x="906.52" y="-78.7" font-family="Arial Italic" font-size="9.00" fill="#444444">1 â€” n</text>
</g>
<!-- rel_has_defaults&#45;&gt;ent_EXERCISE_DEFAULT_CODE -->
<g id="edge6" class="edge">
<title>rel_has_defaults&#45;&gt;ent_EXERCISE_DEFAULT_CODE</title>
<path fill="none" stroke="black" d="M838.78,-18C867.12,-18 901.25,-18 932.76,-18"/>
<polygon fill="black" stroke="black" points="932.73,-21.5 942.73,-18 932.73,-14.5 932.73,-21.5"/>
<text text-anchor="middle" x="906.52" y="-20.7" font-family="Arial Italic" font-size="9.00" fill="#444444">1 â€” n</text>
</g>
<!-- rel_receives_submission&#45;&gt;ent_EXERCISE_SUBMISSION -->
<g id="edge8" class="edge">
<title>rel_receives_submission&#45;&gt;ent_EXERCISE_SUBMISSION</title>
<path fill="none" stroke="black" d="M871.23,-192C894.67,-192 919.64,-192 942.67,-192"/>
<polygon fill="black" stroke="black" points="942.64,-195.5 952.64,-192 942.64,-188.5 942.64,-195.5"/>
<text text-anchor="middle" x="906.52" y="-194.7" font-family="Arial Italic" font-size="9.00" fill="#444444">1 â€” n</text>
</g>
<!-- rel_belongs_to_contest&#45;&gt;ent_CONTEST -->
<g id="edge15" class="edge">
<title>rel_belongs_to_contest&#45;&gt;ent_CONTEST</title>
<path fill="none" stroke="black" d="M819.67,-259.39C849.27,-266.53 888.96,-277.57 922.27,-292 947.25,-302.82 973.53,-318.41 993.83,-331.49"/>
<polygon fill="black" stroke="black" points="991.73,-334.3 1002.02,-336.85 995.57,-328.44 991.73,-334.3"/>
</g>
<!-- rel_belongs_to_contest&#45;&gt;ent_CONTEST_EXERCISE -->
<g id="edge14" class="edge">
<title>rel_belongs_to_contest&#45;&gt;ent_CONTEST_EXERCISE</title>
<path fill="none" stroke="black" d="M857.67,-248.4C878.72,-248.15 901.34,-248.02 922.27,-248.2 931.95,-248.28 942.13,-248.4 952.19,-248.55"/>
<polygon fill="black" stroke="black" points="951.91,-252.04 961.96,-248.69 952.02,-245.04 951.91,-252.04"/>
<text text-anchor="middle" x="906.52" y="-250.7" font-family="Arial Italic" font-size="9.00" fill="#444444">1 â€” n</text>
</g>
<!-- rel_registers_for&#45;&gt;ent_CONTEST -->
<g id="edge18" class="edge">
<title>rel_registers_for&#45;&gt;ent_CONTEST</title>
<path fill="none" stroke="black" d="M230.54,-400.18C311.71,-395.9 470.83,-387.45 605.97,-380 743.62,-372.41 906.41,-363.09 984.02,-358.63"/>
<polygon fill="black" stroke="black" points="983.99,-362.14 993.78,-358.07 983.59,-355.15 983.99,-362.14"/>
</g>
<!-- rel_registers_for&#45;&gt;ent_CONTEST_REGISTRATION -->
<g id="edge17" class="edge">
<title>rel_registers_for&#45;&gt;ent_CONTEST_REGISTRATION</title>
<path fill="none" stroke="black" d="M215.65,-409.98C233.68,-413.17 255.46,-416.92 275.09,-420 326.52,-428.08 384.09,-436.26 430.83,-442.67"/>
<polygon fill="black" stroke="black" points="430.28,-446.13 440.66,-444.01 431.23,-439.19 430.28,-446.13"/>
<text text-anchor="middle" x="347.87" y="-442.7" font-family="Arial Italic" font-size="9.00" fill="#444444">1 â€” n</text>
</g>
<!-- rel_submits_to&#45;&gt;ent_EXERCISE -->
<g id="edge22" class="edge">
<title>rel_submits_to&#45;&gt;ent_EXERCISE</title>
<path fill="none" stroke="black" d="M196.32,-322.09C215.66,-310.56 246.58,-293.21 275.09,-282 337.41,-257.49 358,-266.68 420.65,-243 440.72,-235.41 462.1,-225.17 480.12,-215.85"/>
<polygon fill="black" stroke="black" points="481.74,-218.95 488.97,-211.2 478.49,-212.75 481.74,-218.95"/>
</g>
<!-- rel_submits_to&#45;&gt;ent_CONTEST -->
<g id="edge21" class="edge">
<title>rel_submits_to&#45;&gt;ent_CONTEST</title>
<path fill="none" stroke="black" d="M225,-331.18C278.18,-328.21 366.5,-323.72 442.65,-322 515.22,-320.36 533.44,-319.09 605.97,-322 743.94,-327.53 906.58,-343.14 984.09,-351.14"/>
<polygon fill="black" stroke="black" points="983.53,-354.6 993.83,-352.16 984.25,-347.64 983.53,-354.6"/>
</g>
<!-- rel_submits_to&#45;&gt;ent_CONTEST_SUBMISSION -->
<g id="edge20" class="edge">
<title>rel_submits_to&#45;&gt;ent_CONTEST_SUBMISSION</title>
<path fill="none" stroke="black" d="M226.29,-336.42C281.44,-339.13 371.83,-343.56 438.43,-346.83"/>
<polygon fill="black" stroke="black" points="438.07,-350.32 448.23,-347.31 438.41,-343.33 438.07,-350.32"/>
<text text-anchor="middle" x="347.87" y="-347.7" font-family="Arial Italic" font-size="9.00" fill="#444444">1 â€” n</text>
</g>
<!-- rel_awards&#45;&gt;ent_CONTEST_PRIZE -->
<g id="edge24" class="edge">
<title>rel_awards&#45;&gt;ent_CONTEST_PRIZE</title>
<path fill="none" stroke="black" d="M1233.7,-361.05C1254.26,-364.57 1282.51,-369.41 1308.25,-373.81"/>
<polygon fill="black" stroke="black" points="1307.53,-377.24 1317.98,-375.48 1308.71,-370.34 1307.53,-377.24"/>
<text text-anchor="middle" x="1282.19" y="-373.7" font-family="Arial Italic" font-size="9.00" fill="#444444">1 â€” n</text>
</g>
<!-- rel_awards&#45;&gt;ent_COURSE -->
<g id="edge25" class="edge">
<title>rel_awards&#45;&gt;ent_COURSE</title>
<path fill="none" stroke="black" d="M1233.7,-350.95C1260.77,-346.32 1301.16,-339.4 1331.59,-334.19"/>
<polygon fill="black" stroke="black" points="1331.96,-337.68 1341.23,-332.54 1330.78,-330.78 1331.96,-337.68"/>
</g>
<!-- rel_creates_exercise&#45;&gt;ent_EXERCISE -->
<g id="edge10" class="edge">
<title>rel_creates_exercise&#45;&gt;ent_EXERCISE</title>
<path fill="none" stroke="black" d="M224.83,-235.96C291.16,-226.19 410.4,-208.63 476.31,-198.92"/>
<polygon fill="black" stroke="black" points="476.7,-202.4 486.09,-197.48 475.68,-195.48 476.7,-202.4"/>
<text text-anchor="middle" x="347.87" y="-229.7" font-family="Arial Italic" font-size="9.00" fill="#444444">1 â€” n</text>
</g>
<!-- rel_creates_contest&#45;&gt;ent_CONTEST -->
<g id="edge12" class="edge">
<title>rel_creates_contest&#45;&gt;ent_CONTEST</title>
<path fill="none" stroke="black" d="M419.41,-498.76C530.25,-497.71 750.3,-486.44 922.27,-420 948.01,-410.06 974.67,-394.2 994.98,-380.75"/>
<polygon fill="black" stroke="black" points="996.82,-383.73 1003.15,-375.23 992.91,-377.93 996.82,-383.73"/>
<text text-anchor="middle" x="643.72" y="-488.7" font-family="Arial Italic" font-size="9.00" fill="#444444">1 â€” n</text>
</g>
</g>
</svg>
