<?xml version="1.0" encoding="UTF-8"?>
<svg xmlns="http://www.w3.org/2000/svg" width="868" height="715.1999999999999">
<rect width="868" height="715.1999999999999" fill="white"/>
<defs><pattern id="gUCCAT03" width="20" height="20" patternUnits="userSpaceOnUse"><path d="M20 0 L0 0 0 20" fill="none" stroke="#EFEFEF" stroke-width="0.5"/></pattern></defs>
<rect width="868" height="715.1999999999999" fill="url(#gUCCAT03)"/>
<path d="M8,8 L8,44 L238.5,44 L238.5,17 L229.5,8 Z" fill="white" stroke="#111" stroke-width="1.5"/>
<path d="M229.5,8 L229.5,17 L238.5,17" fill="#CCC" stroke="#111" stroke-width="1"/>
<text x="121" y="31" text-anchor="middle" font-family="Arial,Helvetica,sans-serif" font-size="12" font-weight="bold" fill="#111">UC-CAT-03: Tạo danh mục mới</text>
<line x1="134" y1="142" x2="134" y2="695.1999999999999" stroke="#AAA" stroke-width="1" stroke-dasharray="7,4"/>
<line x1="334" y1="142" x2="334" y2="695.1999999999999" stroke="#AAA" stroke-width="1" stroke-dasharray="7,4"/>
<line x1="534" y1="142" x2="534" y2="695.1999999999999" stroke="#AAA" stroke-width="1" stroke-dasharray="7,4"/>
<line x1="734" y1="142" x2="734" y2="695.1999999999999" stroke="#AAA" stroke-width="1" stroke-dasharray="7,4"/>
<circle cx="134" cy="67" r="12" fill="white" stroke="#111" stroke-width="1.5"/>
<line x1="134" y1="79" x2="134" y2="103" stroke="#111" stroke-width="1.5"/>
<line x1="117" y1="88" x2="151" y2="88" stroke="#111" stroke-width="1.5"/>
<line x1="134" y1="103" x2="122" y2="121" stroke="#111" stroke-width="1.5"/>
<line x1="134" y1="103" x2="146" y2="121" stroke="#111" stroke-width="1.5"/>
<text x="134" y="137" text-anchor="middle" font-family="Arial,Helvetica,sans-serif" font-size="12" fill="#111">Admin</text>
<rect x="270" y="68" width="128" height="38" fill="white" stroke="#111" stroke-width="1.5"/>
<text x="334" y="92" text-anchor="middle" font-family="Arial,Helvetica,sans-serif" font-size="12" font-weight="bold" fill="#111">:Giao diện</text>
<rect x="470" y="68" width="128" height="38" fill="white" stroke="#111" stroke-width="1.5"/>
<text x="534" y="92" text-anchor="middle" font-family="Arial,Helvetica,sans-serif" font-size="12" font-weight="bold" fill="#111">:Hệ thống</text>
<rect x="670" y="68" width="128" height="38" fill="white" stroke="#111" stroke-width="1.5"/>
<text x="734" y="92" text-anchor="middle" font-family="Arial,Helvetica,sans-serif" font-size="12" font-weight="bold" fill="#111">:Database</text>
<line x1="140" y1="130" x2="320" y2="130" stroke="#222" stroke-width="1.3" />
<polygon points="328,130 320,126 320,134" fill="#222"/>
<text x="234" y="123" text-anchor="middle" font-family="Arial,Helvetica,sans-serif" font-size="11" fill="#111">Quản lý Danh mục → "Tạo danh mục mới"</text>
<line x1="328" y1="176" x2="148" y2="176" stroke="#222" stroke-width="1.3" stroke-dasharray="6,3"/>
<line x1="140" y1="176" x2="148" y2="172" stroke="#222" stroke-width="1.3" stroke-dasharray="6,3"/>
<line x1="140" y1="176" x2="148" y2="180" stroke="#222" stroke-width="1.3" stroke-dasharray="6,3"/>
<text x="234" y="169" text-anchor="middle" font-family="Arial,Helvetica,sans-serif" font-size="11" fill="#111">Hiển thị Form nhập tên danh mục</text>
<line x1="140" y1="222" x2="320" y2="222" stroke="#222" stroke-width="1.3" />
<polygon points="328,222 320,218 320,226" fill="#222"/>
<text x="234" y="215" text-anchor="middle" font-family="Arial,Helvetica,sans-serif" font-size="11" fill="#111">Nhập tên, chọn trạng thái → Bấm "Lưu"</text>
<line x1="340" y1="268" x2="520" y2="268" stroke="#222" stroke-width="1.3" />
<polygon points="528,268 520,264 520,272" fill="#222"/>
<text x="434" y="261" text-anchor="middle" font-family="Arial,Helvetica,sans-serif" font-size="11" fill="#111">POST /api/categories [Admin JWT]</text>
<path d="M540,304 L579,304 L579,334 L540,334" fill="none" stroke="#222" stroke-width="1.3"/>
<polygon points="540,334 547,330 547,338" fill="#222"/>
<text x="584" y="323" font-family="Arial,Helvetica,sans-serif" font-size="10.5" fill="#111">[RBAC] Kiểm tra quyền Admin</text>
<line x1="540" y1="369.2" x2="720" y2="369.2" stroke="#222" stroke-width="1.3" />
<polygon points="728,369.2 720,365.2 720,373.2" fill="#222"/>
<text x="634" y="362.2" text-anchor="middle" font-family="Arial,Helvetica,sans-serif" font-size="11" fill="#111">Kiểm tra tên danh mục đã tồn tại?</text>
<line x1="728" y1="415.2" x2="548" y2="415.2" stroke="#222" stroke-width="1.3" stroke-dasharray="6,3"/>
<line x1="540" y1="415.2" x2="548" y2="411.2" stroke="#222" stroke-width="1.3" stroke-dasharray="6,3"/>
<line x1="540" y1="415.2" x2="548" y2="419.2" stroke="#222" stroke-width="1.3" stroke-dasharray="6,3"/>
<text x="634" y="408.2" text-anchor="middle" font-family="Arial,Helvetica,sans-serif" font-size="11" fill="#111">Trả về 0 (chưa tồn tại)</text>
<line x1="540" y1="461.2" x2="720" y2="461.2" stroke="#222" stroke-width="1.3" />
<polygon points="728,461.2 720,457.2 720,465.2" fill="#222"/>
<text x="634" y="454.2" text-anchor="middle" font-family="Arial,Helvetica,sans-serif" font-size="11" fill="#111">INSERT INTO Categories</text>
<line x1="728" y1="507.2" x2="548" y2="507.2" stroke="#222" stroke-width="1.3" stroke-dasharray="6,3"/>
<line x1="540" y1="507.2" x2="548" y2="503.2" stroke="#222" stroke-width="1.3" stroke-dasharray="6,3"/>
<line x1="540" y1="507.2" x2="548" y2="511.2" stroke="#222" stroke-width="1.3" stroke-dasharray="6,3"/>
<text x="634" y="500.2" text-anchor="middle" font-family="Arial,Helvetica,sans-serif" font-size="11" fill="#111">Trả về CategoryId mới</text>
<line x1="528" y1="553.2" x2="348" y2="553.2" stroke="#222" stroke-width="1.3" stroke-dasharray="6,3"/>
<line x1="340" y1="553.2" x2="348" y2="549.2" stroke="#222" stroke-width="1.3" stroke-dasharray="6,3"/>
<line x1="340" y1="553.2" x2="348" y2="557.2" stroke="#222" stroke-width="1.3" stroke-dasharray="6,3"/>
<text x="434" y="546.2" text-anchor="middle" font-family="Arial,Helvetica,sans-serif" font-size="11" fill="#111">HTTP 201: { categoryId, name, isActive }</text>
<line x1="328" y1="599.2" x2="148" y2="599.2" stroke="#222" stroke-width="1.3" stroke-dasharray="6,3"/>
<line x1="140" y1="599.2" x2="148" y2="595.2" stroke="#222" stroke-width="1.3" stroke-dasharray="6,3"/>
<line x1="140" y1="599.2" x2="148" y2="603.2" stroke="#222" stroke-width="1.3" stroke-dasharray="6,3"/>
<text x="234" y="592.2" text-anchor="middle" font-family="Arial,Helvetica,sans-serif" font-size="11" fill="#111">Thông báo thành công, cập nhật danh sách</text>
</svg>