<?xml version="1.0" encoding="UTF-8"?>
<svg xmlns="http://www.w3.org/2000/svg" width="868" height="830.2">
<rect width="868" height="830.2" fill="white"/>
<defs><pattern id="gUCCAT05" width="20" height="20" patternUnits="userSpaceOnUse"><path d="M20 0 L0 0 0 20" fill="none" stroke="#EFEFEF" stroke-width="0.5"/></pattern></defs>
<rect width="868" height="830.2" fill="url(#gUCCAT05)"/>
<path d="M8,8 L8,44 L126,44 L126,17 L117,8 Z" fill="white" stroke="#111" stroke-width="1.5"/>
<path d="M117,8 L117,17 L126,17" fill="#CCC" stroke="#111" stroke-width="1"/>
<text x="64.75" y="31" text-anchor="middle" font-family="Arial,Helvetica,sans-serif" font-size="12" font-weight="bold" fill="#111">Xóa danh mục</text>
<rect x="99" y="401.4" width="670" height="345" fill="rgba(220,220,220,0.15)" stroke="#555" stroke-width="1.5"/>
<rect x="99" y="401.4" width="28" height="16" fill="#555" rx="1"/>
<text x="103" y="413.4" font-family="Arial,Helvetica,sans-serif" font-size="10" fill="white" font-weight="bold">alt</text>
<text x="105" y="430.2" font-family="Arial,Helvetica,sans-serif" font-size="10.5" fill="#333" font-style="italic">[Có thể xóa]</text>
<line x1="540" y1="435.9" x2="720" y2="435.9" stroke="#222" stroke-width="1.3" />
<polygon points="728,435.9 720,431.9 720,439.9" fill="#222"/>
<text x="634" y="428.9" text-anchor="middle" font-family="Arial,Helvetica,sans-serif" font-size="11" fill="#111">Truy vấn xóa đối tượng</text>
<line x1="728" y1="481.9" x2="548" y2="481.9" stroke="#222" stroke-width="1.3" stroke-dasharray="6,3"/>
<line x1="540" y1="481.9" x2="548" y2="477.9" stroke="#222" stroke-width="1.3" stroke-dasharray="6,3"/>
<line x1="540" y1="481.9" x2="548" y2="485.9" stroke="#222" stroke-width="1.3" stroke-dasharray="6,3"/>
<text x="634" y="474.9" text-anchor="middle" font-family="Arial,Helvetica,sans-serif" font-size="11" fill="#111">Trả về kết quả truy vấn</text>
<line x1="528" y1="527.9" x2="348" y2="527.9" stroke="#222" stroke-width="1.3" stroke-dasharray="6,3"/>
<line x1="340" y1="527.9" x2="348" y2="523.9" stroke="#222" stroke-width="1.3" stroke-dasharray="6,3"/>
<line x1="340" y1="527.9" x2="348" y2="531.9" stroke="#222" stroke-width="1.3" stroke-dasharray="6,3"/>
<text x="434" y="520.9" text-anchor="middle" font-family="Arial,Helvetica,sans-serif" font-size="11" fill="#111">Xuất thông báo thành công</text>
<line x1="328" y1="573.9" x2="148" y2="573.9" stroke="#222" stroke-width="1.3" stroke-dasharray="6,3"/>
<line x1="140" y1="573.9" x2="148" y2="569.9" stroke="#222" stroke-width="1.3" stroke-dasharray="6,3"/>
<line x1="140" y1="573.9" x2="148" y2="577.9" stroke="#222" stroke-width="1.3" stroke-dasharray="6,3"/>
<text x="234" y="566.9" text-anchor="middle" font-family="Arial,Helvetica,sans-serif" font-size="11" fill="#111">Hiện thông báo</text>
<line x1="99" y1="619.9" x2="769" y2="619.9" stroke="#555" stroke-width="1" stroke-dasharray="5,3"/>
<text x="105" y="634.9" font-family="Arial,Helvetica,sans-serif" font-size="10.5" fill="#333" font-style="italic">[Không thể xóa]</text>
<line x1="528" y1="640.6" x2="348" y2="640.6" stroke="#222" stroke-width="1.3" stroke-dasharray="6,3"/>
<line x1="340" y1="640.6" x2="348" y2="636.6" stroke="#222" stroke-width="1.3" stroke-dasharray="6,3"/>
<line x1="340" y1="640.6" x2="348" y2="644.6" stroke="#222" stroke-width="1.3" stroke-dasharray="6,3"/>
<text x="434" y="633.6" text-anchor="middle" font-family="Arial,Helvetica,sans-serif" font-size="11" fill="#111">Xuất thông báo lỗi</text>
<line x1="328" y1="686.6" x2="148" y2="686.6" stroke="#222" stroke-width="1.3" stroke-dasharray="6,3"/>
<line x1="140" y1="686.6" x2="148" y2="682.6" stroke="#222" stroke-width="1.3" stroke-dasharray="6,3"/>
<line x1="140" y1="686.6" x2="148" y2="690.6" stroke="#222" stroke-width="1.3" stroke-dasharray="6,3"/>
<text x="234" y="679.6" text-anchor="middle" font-family="Arial,Helvetica,sans-serif" font-size="11" fill="#111">Hiện thông báo lỗi</text>
<line x1="134" y1="142" x2="134" y2="810.2" stroke="#AAA" stroke-width="1" stroke-dasharray="7,4"/>
<line x1="334" y1="142" x2="334" y2="810.2" stroke="#AAA" stroke-width="1" stroke-dasharray="7,4"/>
<line x1="534" y1="142" x2="534" y2="810.2" stroke="#AAA" stroke-width="1" stroke-dasharray="7,4"/>
<line x1="734" y1="142" x2="734" y2="810.2" stroke="#AAA" stroke-width="1" stroke-dasharray="7,4"/>
<circle cx="134" cy="67" r="12" fill="white" stroke="#111" stroke-width="1.5"/>
<line x1="134" y1="79" x2="134" y2="103" stroke="#111" stroke-width="1.5"/>
<line x1="117" y1="88" x2="151" y2="88" stroke="#111" stroke-width="1.5"/>
<line x1="134" y1="103" x2="122" y2="121" stroke="#111" stroke-width="1.5"/>
<line x1="134" y1="103" x2="146" y2="121" stroke="#111" stroke-width="1.5"/>
<text x="134" y="137" text-anchor="middle" font-family="Arial,Helvetica,sans-serif" font-size="12" fill="#111">Admin</text>
<rect x="270" y="68" width="128" height="38" fill="white" stroke="#111" stroke-width="1.5"/>
<text x="334" y="92" text-anchor="middle" font-family="Arial,Helvetica,sans-serif" font-size="12" font-weight="bold" fill="#111">:Giao diện</text>
<rect x="470" y="68" width="128" height="38" fill="white" stroke="#111" stroke-width="1.5"/>
<text x="534" y="92" text-anchor="middle" font-family="Arial,Helvetica,sans-serif" font-size="12" font-weight="bold" fill="#111">:Hệ thống</text>
<rect x="670" y="68" width="128" height="38" fill="white" stroke="#111" stroke-width="1.5"/>
<text x="734" y="92" text-anchor="middle" font-family="Arial,Helvetica,sans-serif" font-size="12" font-weight="bold" fill="#111">:Database</text>
<line x1="140" y1="130" x2="320" y2="130" stroke="#222" stroke-width="1.3" />
<polygon points="328,130 320,126 320,134" fill="#222"/>
<text x="234" y="123" text-anchor="middle" font-family="Arial,Helvetica,sans-serif" font-size="11" fill="#111">Yêu cầu xóa danh mục</text>
<path d="M340,166 L379,166 L379,196 L340,196" fill="none" stroke="#222" stroke-width="1.3"/>
<polygon points="340,196 347,192 347,200" fill="#222"/>
<text x="384" y="185" font-family="Arial,Helvetica,sans-serif" font-size="10.5" fill="#111">Hiện thông báo xác nhận</text>
<line x1="140" y1="231.2" x2="320" y2="231.2" stroke="#222" stroke-width="1.3" />
<polygon points="328,231.2 320,227.2 320,235.2" fill="#222"/>
<text x="234" y="224.2" text-anchor="middle" font-family="Arial,Helvetica,sans-serif" font-size="11" fill="#111">Xác nhận xóa</text>
<line x1="340" y1="277.2" x2="520" y2="277.2" stroke="#222" stroke-width="1.3" />
<polygon points="528,277.2 520,273.2 520,281.2" fill="#222"/>
<text x="434" y="270.2" text-anchor="middle" font-family="Arial,Helvetica,sans-serif" font-size="11" fill="#111">Gửi yêu cầu</text>
<line x1="540" y1="323.2" x2="720" y2="323.2" stroke="#222" stroke-width="1.3" />
<polygon points="728,323.2 720,319.2 720,327.2" fill="#222"/>
<text x="634" y="316.2" text-anchor="middle" font-family="Arial,Helvetica,sans-serif" font-size="11" fill="#111">Truy vấn kiểm tra ràng buộc</text>
<line x1="728" y1="369.2" x2="548" y2="369.2" stroke="#222" stroke-width="1.3" stroke-dasharray="6,3"/>
<line x1="540" y1="369.2" x2="548" y2="365.2" stroke="#222" stroke-width="1.3" stroke-dasharray="6,3"/>
<line x1="540" y1="369.2" x2="548" y2="373.2" stroke="#222" stroke-width="1.3" stroke-dasharray="6,3"/>
<text x="634" y="362.2" text-anchor="middle" font-family="Arial,Helvetica,sans-serif" font-size="11" fill="#111">Trả về kết quả truy vấn</text>
</svg>