<?xml version="1.0" encoding="UTF-8"?>
<svg xmlns="http://www.w3.org/2000/svg" width="868" height="807.1999999999999">
<rect width="868" height="807.1999999999999" fill="white"/>
<defs><pattern id="gUCLRN03" width="20" height="20" patternUnits="userSpaceOnUse"><path d="M20 0 L0 0 0 20" fill="none" stroke="#EFEFEF" stroke-width="0.5"/></pattern></defs>
<rect width="868" height="807.1999999999999" fill="url(#gUCLRN03)"/>
<path d="M8,8 L8,44 L156,44 L156,17 L147,8 Z" fill="white" stroke="#111" stroke-width="1.5"/>
<path d="M147,8 L147,17 L156,17" fill="#CCC" stroke="#111" stroke-width="1"/>
<text x="79.75" y="31" text-anchor="middle" font-family="Arial,Helvetica,sans-serif" font-size="12" font-weight="bold" fill="#111">Làm bài kiểm tra</text>
<line x1="134" y1="142" x2="134" y2="787.1999999999999" stroke="#AAA" stroke-width="1" stroke-dasharray="7,4"/>
<line x1="334" y1="142" x2="334" y2="787.1999999999999" stroke="#AAA" stroke-width="1" stroke-dasharray="7,4"/>
<line x1="534" y1="142" x2="534" y2="787.1999999999999" stroke="#AAA" stroke-width="1" stroke-dasharray="7,4"/>
<line x1="734" y1="142" x2="734" y2="787.1999999999999" stroke="#AAA" stroke-width="1" stroke-dasharray="7,4"/>
<circle cx="134" cy="67" r="12" fill="white" stroke="#111" stroke-width="1.5"/>
<line x1="134" y1="79" x2="134" y2="103" stroke="#111" stroke-width="1.5"/>
<line x1="117" y1="88" x2="151" y2="88" stroke="#111" stroke-width="1.5"/>
<line x1="134" y1="103" x2="122" y2="121" stroke="#111" stroke-width="1.5"/>
<line x1="134" y1="103" x2="146" y2="121" stroke="#111" stroke-width="1.5"/>
<text x="134" y="137" text-anchor="middle" font-family="Arial,Helvetica,sans-serif" font-size="12" fill="#111">Student</text>
<rect x="270" y="68" width="128" height="38" fill="white" stroke="#111" stroke-width="1.5"/>
<text x="334" y="92" text-anchor="middle" font-family="Arial,Helvetica,sans-serif" font-size="12" font-weight="bold" fill="#111">:Giao diện</text>
<rect x="470" y="68" width="128" height="38" fill="white" stroke="#111" stroke-width="1.5"/>
<text x="534" y="92" text-anchor="middle" font-family="Arial,Helvetica,sans-serif" font-size="12" font-weight="bold" fill="#111">:Hệ thống</text>
<rect x="670" y="68" width="128" height="38" fill="white" stroke="#111" stroke-width="1.5"/>
<text x="734" y="92" text-anchor="middle" font-family="Arial,Helvetica,sans-serif" font-size="12" font-weight="bold" fill="#111">:Database</text>
<line x1="140" y1="130" x2="320" y2="130" stroke="#222" stroke-width="1.3" />
<polygon points="328,130 320,126 320,134" fill="#222"/>
<text x="234" y="123" text-anchor="middle" font-family="Arial,Helvetica,sans-serif" font-size="11" fill="#111">Yêu cầu làm bài kiểm tra</text>
<line x1="340" y1="176" x2="520" y2="176" stroke="#222" stroke-width="1.3" />
<polygon points="528,176 520,172 520,180" fill="#222"/>
<text x="434" y="169" text-anchor="middle" font-family="Arial,Helvetica,sans-serif" font-size="11" fill="#111">Gửi yêu cầu</text>
<line x1="540" y1="222" x2="720" y2="222" stroke="#222" stroke-width="1.3" />
<polygon points="728,222 720,218 720,226" fill="#222"/>
<text x="634" y="215" text-anchor="middle" font-family="Arial,Helvetica,sans-serif" font-size="11" fill="#111">Truy vấn lấy đề thi</text>
<line x1="728" y1="268" x2="548" y2="268" stroke="#222" stroke-width="1.3" stroke-dasharray="6,3"/>
<line x1="540" y1="268" x2="548" y2="264" stroke="#222" stroke-width="1.3" stroke-dasharray="6,3"/>
<line x1="540" y1="268" x2="548" y2="272" stroke="#222" stroke-width="1.3" stroke-dasharray="6,3"/>
<text x="634" y="261" text-anchor="middle" font-family="Arial,Helvetica,sans-serif" font-size="11" fill="#111">Trả về kết quả truy vấn</text>
<line x1="528" y1="314" x2="348" y2="314" stroke="#222" stroke-width="1.3" stroke-dasharray="6,3"/>
<line x1="340" y1="314" x2="348" y2="310" stroke="#222" stroke-width="1.3" stroke-dasharray="6,3"/>
<line x1="340" y1="314" x2="348" y2="318" stroke="#222" stroke-width="1.3" stroke-dasharray="6,3"/>
<text x="434" y="307" text-anchor="middle" font-family="Arial,Helvetica,sans-serif" font-size="11" fill="#111">Xuất đề thi</text>
<line x1="328" y1="360" x2="148" y2="360" stroke="#222" stroke-width="1.3" stroke-dasharray="6,3"/>
<line x1="140" y1="360" x2="148" y2="356" stroke="#222" stroke-width="1.3" stroke-dasharray="6,3"/>
<line x1="140" y1="360" x2="148" y2="364" stroke="#222" stroke-width="1.3" stroke-dasharray="6,3"/>
<text x="234" y="353" text-anchor="middle" font-family="Arial,Helvetica,sans-serif" font-size="11" fill="#111">Hiện thông tin</text>
<line x1="140" y1="406" x2="320" y2="406" stroke="#222" stroke-width="1.3" />
<polygon points="328,406 320,402 320,410" fill="#222"/>
<text x="234" y="399" text-anchor="middle" font-family="Arial,Helvetica,sans-serif" font-size="11" fill="#111">Nộp bài làm</text>
<line x1="340" y1="452" x2="520" y2="452" stroke="#222" stroke-width="1.3" />
<polygon points="528,452 520,448 520,456" fill="#222"/>
<text x="434" y="445" text-anchor="middle" font-family="Arial,Helvetica,sans-serif" font-size="11" fill="#111">Gửi bài làm</text>
<path d="M540,488 L579,488 L579,518 L540,518" fill="none" stroke="#222" stroke-width="1.3"/>
<polygon points="540,518 547,514 547,522" fill="#222"/>
<text x="584" y="507" font-family="Arial,Helvetica,sans-serif" font-size="10.5" fill="#111">Kiểm tra và chấm điểm</text>
<line x1="540" y1="553.2" x2="720" y2="553.2" stroke="#222" stroke-width="1.3" />
<polygon points="728,553.2 720,549.2 720,557.2" fill="#222"/>
<text x="634" y="546.2" text-anchor="middle" font-family="Arial,Helvetica,sans-serif" font-size="11" fill="#111">Truy vấn lưu kết quả</text>
<line x1="728" y1="599.2" x2="548" y2="599.2" stroke="#222" stroke-width="1.3" stroke-dasharray="6,3"/>
<line x1="540" y1="599.2" x2="548" y2="595.2" stroke="#222" stroke-width="1.3" stroke-dasharray="6,3"/>
<line x1="540" y1="599.2" x2="548" y2="603.2" stroke="#222" stroke-width="1.3" stroke-dasharray="6,3"/>
<text x="634" y="592.2" text-anchor="middle" font-family="Arial,Helvetica,sans-serif" font-size="11" fill="#111">Trả về kết quả truy vấn</text>
<line x1="528" y1="645.2" x2="348" y2="645.2" stroke="#222" stroke-width="1.3" stroke-dasharray="6,3"/>
<line x1="340" y1="645.2" x2="348" y2="641.2" stroke="#222" stroke-width="1.3" stroke-dasharray="6,3"/>
<line x1="340" y1="645.2" x2="348" y2="649.2" stroke="#222" stroke-width="1.3" stroke-dasharray="6,3"/>
<text x="434" y="638.2" text-anchor="middle" font-family="Arial,Helvetica,sans-serif" font-size="11" fill="#111">Xuất kết quả</text>
<line x1="328" y1="691.2" x2="148" y2="691.2" stroke="#222" stroke-width="1.3" stroke-dasharray="6,3"/>
<line x1="140" y1="691.2" x2="148" y2="687.2" stroke="#222" stroke-width="1.3" stroke-dasharray="6,3"/>
<line x1="140" y1="691.2" x2="148" y2="695.2" stroke="#222" stroke-width="1.3" stroke-dasharray="6,3"/>
<text x="234" y="684.2" text-anchor="middle" font-family="Arial,Helvetica,sans-serif" font-size="11" fill="#111">Hiện kết quả</text>
</svg>